# xmcd
#
# Track frame offsets: 
#        150
#        31725
#        68325
#        93375
#        112425
#        142200
#        163650
#        187200
#
# Disc length: 3315 seconds
#
# Revision: 2
# Processed by: cddbd v1.5.2PL0 Copyright (c) Steve Scherf et al.
# Submitted via: ExactAudioCopyFreeDBPlugin 1.0
#
DISCID=730cf108
DTITLE=Balazs Elemer - Always that moment 2
DYEAR=2008
DGENRE=Jazz
TTITLE0=Nem mondhatom el
TTITLE1=En mindenkiben csalodtam
TTITLE2=Csak a szepre emlekezem
TTITLE3=Felteni kell
TTITLE4=Ha arulnak majd gesztenyet
TTITLE5=Felig sem szerelem
TTITLE6=Hol van az a nyar
TTITLE7=Hullo falevelek
EXTD=YEAR: 2008
EXTT0=
EXTT1=
EXTT2=
EXTT3=
EXTT4=
EXTT5=
EXTT6=
EXTT7=
PLAYORDER=
